<svg xmlns="http://www.w3.org/2000/svg" viewBox="0 0 770 392" font-family="'SFMono-Regular', Consolas, 'Liberation Mono', Menlo, monospace">
<text x="24" y="30" font-size="16" fill="#e6edf3" font-weight="700">&#960;( action | state = new_project )</text>
<text x="24" y="50" font-size="12" fill="#9198a1">output layer &#8212; softmax over a lifetime of tinkering</text>
<text x="24" y="83" font-size="14" fill="#e6edf3">python</text>
<rect x="210" y="70" width="400" height="16" rx="8" fill="#21262d"/>
<rect x="210" y="70" width="0" height="16" rx="8" fill="#39d353"><animate attributeName="width" values="0;0;388;388" keyTimes="0;0.039;0.161;1" dur="9s" repeatCount="indefinite"/></rect>
<text x="624" y="83" font-size="14" fill="#9198a1" opacity="0">0.97<animate attributeName="opacity" values="0;0;1;1" keyTimes="0;0.161;0.211;1" dur="9s" repeatCount="indefinite"/></text>
<text x="670" y="83" font-size="13" fill="#58a6ff" opacity="0">&#8592; argmax<animate attributeName="opacity" values="0;0;1;1" keyTimes="0;0.161;0.221;1" dur="9s" repeatCount="indefinite"/></text>
<text x="24" y="119" font-size="14" fill="#e6edf3">pytorch</text>
<rect x="210" y="106" width="400" height="16" rx="8" fill="#21262d"/>
<rect x="210" y="106" width="0" height="16" rx="8" fill="#39d353"><animate attributeName="width" values="0;0;376;376" keyTimes="0;0.059;0.181;1" dur="9s" repeatCount="indefinite"/></rect>
<text x="624" y="119" font-size="14" fill="#9198a1" opacity="0">0.94<animate attributeName="opacity" values="0;0;1;1" keyTimes="0;0.181;0.231;1" dur="9s" repeatCount="indefinite"/></text>
<text x="24" y="155" font-size="14" fill="#e6edf3">tensorflow / keras</text>
<rect x="210" y="142" width="400" height="16" rx="8" fill="#21262d"/>
<rect x="210" y="142" width="0" height="16" rx="8" fill="#39d353"><animate attributeName="width" values="0;0;344;344" keyTimes="0;0.079;0.201;1" dur="9s" repeatCount="indefinite"/></rect>
<text x="624" y="155" font-size="14" fill="#9198a1" opacity="0">0.86<animate attributeName="opacity" values="0;0;1;1" keyTimes="0;0.201;0.251;1" dur="9s" repeatCount="indefinite"/></text>
<text x="24" y="191" font-size="14" fill="#e6edf3">scikit-learn</text>
<rect x="210" y="178" width="400" height="16" rx="8" fill="#21262d"/>
<rect x="210" y="178" width="0" height="16" rx="8" fill="#39d353"><animate attributeName="width" values="0;0;332;332" keyTimes="0;0.099;0.221;1" dur="9s" repeatCount="indefinite"/></rect>
<text x="624" y="191" font-size="14" fill="#9198a1" opacity="0">0.83<animate attributeName="opacity" values="0;0;1;1" keyTimes="0;0.221;0.271;1" dur="9s" repeatCount="indefinite"/></text>
<text x="24" y="227" font-size="14" fill="#e6edf3">opencv</text>
<rect x="210" y="214" width="400" height="16" rx="8" fill="#21262d"/>
<rect x="210" y="214" width="0" height="16" rx="8" fill="#39d353"><animate attributeName="width" values="0;0;320;320" keyTimes="0;0.119;0.241;1" dur="9s" repeatCount="indefinite"/></rect>
<text x="624" y="227" font-size="14" fill="#9198a1" opacity="0">0.80<animate attributeName="opacity" values="0;0;1;1" keyTimes="0;0.241;0.291;1" dur="9s" repeatCount="indefinite"/></text>
<text x="24" y="263" font-size="14" fill="#e6edf3">fastapi / django</text>
<rect x="210" y="250" width="400" height="16" rx="8" fill="#21262d"/>
<rect x="210" y="250" width="0" height="16" rx="8" fill="#39d353"><animate attributeName="width" values="0;0;312;312" keyTimes="0;0.139;0.261;1" dur="9s" repeatCount="indefinite"/></rect>
<text x="624" y="263" font-size="14" fill="#9198a1" opacity="0">0.78<animate attributeName="opacity" values="0;0;1;1" keyTimes="0;0.261;0.311;1" dur="9s" repeatCount="indefinite"/></text>
<text x="24" y="299" font-size="14" fill="#e6edf3">javascript / react</text>
<rect x="210" y="286" width="400" height="16" rx="8" fill="#21262d"/>
<rect x="210" y="286" width="0" height="16" rx="8" fill="#39d353"><animate attributeName="width" values="0;0;292;292" keyTimes="0;0.159;0.281;1" dur="9s" repeatCount="indefinite"/></rect>
<text x="624" y="299" font-size="14" fill="#9198a1" opacity="0">0.73<animate attributeName="opacity" values="0;0;1;1" keyTimes="0;0.281;0.331;1" dur="9s" repeatCount="indefinite"/></text>
<text x="24" y="335" font-size="14" fill="#e6edf3">docker / aws</text>
<rect x="210" y="322" width="400" height="16" rx="8" fill="#21262d"/>
<rect x="210" y="322" width="0" height="16" rx="8" fill="#39d353"><animate attributeName="width" values="0;0;280;280" keyTimes="0;0.179;0.301;1" dur="9s" repeatCount="indefinite"/></rect>
<text x="624" y="335" font-size="14" fill="#9198a1" opacity="0">0.70<animate attributeName="opacity" values="0;0;1;1" keyTimes="0;0.301;0.351;1" dur="9s" repeatCount="indefinite"/></text>
</svg>